# xmcd
#
# Track frame offsets: 
#        150
#        31189
#        37439
#        59797
#        109499
#        128367
#        163042
#        203372
#
# Disc length: 3403 seconds
#
# Revision: 3
# Processed by: cddbd v1.5.2PL0 Copyright (c) Steve Scherf et al.
# Submitted via: ExactAudioCopy v0.99pb4
#
DISCID=6e0d4908
DTITLE=August Zirner - Trost der Philosophie - Frustration - Seneca, 
DYEAR=2003
DGENRE=Speech
TTITLE0=Trost der Philosophie - Frustration 1
TTITLE1=Trost der Philosophie - Frustration 2
TTITLE2=Trost der Philosophie - Frustration 3
TTITLE3=Trost der Philosophie - Frustration 4
TTITLE4=Trost der Philosophie - Frustration 5
TTITLE5=Trost der Philosophie - Frustration 6
TTITLE6=Trost der Philosophie - Frustration 7
TTITLE7=Trost der Philosophie - Frustration 8
EXTD=von Alain de Botton
EXTT0=
EXTT1=
EXTT2=
EXTT3=
EXTT4=
EXTT5=
EXTT6=
EXTT7=
PLAYORDER=
